<svg width="28" height="24" viewBox="0 0 28 24" fill="none" xmlns="http://www.w3.org/2000/svg">
<path fill-rule="evenodd" clip-rule="evenodd" d="M24.7424 17.729V7.16824C24.7424 5.41847 23.3577 4 21.6496 4H3.0928C1.3847 4 0 5.41847 0 7.16824V17.729C0 19.4788 1.3847 20.8973 3.0928 20.8973C3.66217 20.8973 4.12374 20.4244 4.12374 19.8412C4.12374 19.2579 3.66217 18.7851 3.0928 18.7851C2.52343 18.7851 2.06187 18.3123 2.06187 17.729V7.16824C2.06187 6.58498 2.52343 6.11216 3.0928 6.11216H21.6496C22.219 6.11216 22.6806 6.58498 22.6806 7.16824V17.729C22.6806 18.3123 22.219 18.7851 21.6496 18.7851C21.0803 18.7851 20.6187 19.2579 20.6187 19.8412C20.6187 20.4244 21.0803 20.8973 21.6496 20.8973C23.3577 20.8973 24.7424 19.4788 24.7424 17.729ZM18.5569 23.0094C18.165 23.0122 17.8054 22.7871 17.6291 22.4286L16.8868 20.8973H7.85579L7.11352 22.4286C6.85028 22.9314 6.24475 23.1291 5.746 22.8751C5.24725 22.6211 5.03565 22.0072 5.26815 21.4887L6.01042 19.9574C6.3586 19.2396 7.07337 18.7855 7.85579 18.7851H16.8868C17.6692 18.7855 18.384 19.2396 18.7322 19.9574L19.4744 21.4887C19.6304 21.8146 19.6119 22.1998 19.4256 22.5086C19.2393 22.8174 18.9112 23.0065 18.5569 23.0094ZM9.04 10.72V16H10.52V10.72H12.31V9.48H7.25V10.72H9.04ZM12.4866 9.48L14.4566 16H16.2266L18.1866 9.48H16.6866L15.9166 12.52C15.8233 12.88 15.7366 13.23 15.6566 13.57C15.5766 13.9033 15.49 14.25 15.3966 14.61H15.3566C15.2566 14.25 15.1666 13.9033 15.0866 13.57C15.0133 13.23 14.9266 12.88 14.8266 12.52L14.0466 9.48H12.4866Z" fill="#0F1E36" fill-opacity="0.5"/>
<ellipse cx="23.5" cy="4.58536" rx="3.5" ry="3.58536" fill="#F51E38" stroke="#F5F5F5"/>
</svg>
