<svg xmlns="http://www.w3.org/2000/svg" style="display: none">
  <symbol id="icon-tv" viewBox="0 0 25 20">
    <path fill-rule="evenodd" clip-rule="evenodd" d="M24.7424 13.729V3.16824C24.7424 1.41847 23.3577 0 21.6496 0H3.0928C1.3847 0 0 1.41847 0 3.16824V13.729C0 15.4788 1.3847 16.8973 3.0928 16.8973C3.66217 16.8973 4.12374 16.4244 4.12374 15.8412C4.12374 15.2579 3.66217 14.7851 3.0928 14.7851C2.52343 14.7851 2.06187 14.3123 2.06187 13.729V3.16824C2.06187 2.58498 2.52343 2.11216 3.0928 2.11216H21.6496C22.219 2.11216 22.6806 2.58498 22.6806 3.16824V13.729C22.6806 14.3123 22.219 14.7851 21.6496 14.7851C21.0803 14.7851 20.6187 15.2579 20.6187 15.8412C20.6187 16.4244 21.0803 16.8973 21.6496 16.8973C23.3577 16.8973 24.7424 15.4788 24.7424 13.729ZM18.5569 19.0094C18.165 19.0122 17.8054 18.7871 17.6291 18.4286L16.8868 16.8973H7.85579L7.11352 18.4286C6.85028 18.9314 6.24475 19.1291 5.746 18.8751C5.24725 18.6211 5.03565 18.0072 5.26815 17.4887L6.01042 15.9574C6.3586 15.2396 7.07337 14.7855 7.85579 14.7851H16.8868C17.6692 14.7855 18.384 15.2396 18.7322 15.9574L19.4744 17.4887C19.6304 17.8146 19.6119 18.1998 19.4256 18.5086C19.2393 18.8174 18.9112 19.0065 18.5569 19.0094ZM10.51 12H9.04V6.72H7.24V5.48H12.3V6.72H10.51V12ZM16.2069 12H14.4369L12.4669 5.48H14.0269L14.8169 8.52C14.9049 8.84893 14.98 9.16713 15.0552 9.48554C15.1424 9.85441 15.2295 10.2236 15.3369 10.61H15.3769C15.4842 10.2236 15.5714 9.85442 15.6585 9.48555C15.7337 9.16714 15.8089 8.84893 15.8969 8.52L16.6669 5.48H18.1769L16.2069 12Z"/>
  </symbol>
  <symbol id="icon-radio" viewBox="0 0 23 20">
   <path fill-rule="evenodd" clip-rule="evenodd" d="M19.877 19.6033H3.47574C1.96604 19.6033 0.742188 18.3496 0.742188 16.803V7.46897C0.742188 5.92245 1.96604 4.66875 3.47574 4.66875H4.12268L11.1935 0.141723C11.6212 -0.131496 12.1842 0.00223234 12.4509 0.440413C12.7176 0.878594 12.5871 1.4553 12.1593 1.72852L5.08853 6.25554C4.79852 6.43966 4.46387 6.53668 4.12268 6.53556H3.47574C2.97251 6.53556 2.56455 6.95346 2.56455 7.46897V16.803C2.56455 17.3185 2.97251 17.7365 3.47574 17.7365H19.877C20.3803 17.7365 20.7882 17.3185 20.7882 16.803V7.46897C20.7882 6.95346 20.3803 6.53556 19.877 6.53556H9.85402C9.35079 6.53556 8.94284 6.11766 8.94284 5.60216C8.94284 5.08665 9.35079 4.66875 9.85402 4.66875H19.877C21.3867 4.66875 22.6106 5.92245 22.6106 7.46897V16.803C22.6106 17.5457 22.3226 18.258 21.81 18.7831C21.2973 19.3082 20.602 19.6033 19.877 19.6033ZM18.9661 12.136C18.9661 10.5895 17.7423 9.33578 16.2326 9.33578C14.7229 9.33578 13.499 10.5895 13.499 12.136C13.499 12.6515 13.907 13.0694 14.4102 13.0694C14.9134 13.0694 15.3214 12.6515 15.3214 12.136C15.3214 11.6205 15.7293 11.2026 16.2326 11.2026C16.7358 11.2026 17.1438 11.6205 17.1438 12.136C17.1438 12.6515 16.7358 13.0694 16.2326 13.0694C15.7293 13.0694 15.3214 13.4873 15.3214 14.0028C15.3214 14.5183 15.7293 14.9362 16.2326 14.9362C17.7423 14.9362 18.9661 13.6825 18.9661 12.136ZM10.7655 10.2692C10.7655 9.75369 10.3575 9.33578 9.85431 9.33578H5.29839C4.79516 9.33578 4.38721 9.75369 4.38721 10.2692C4.38721 10.7847 4.79516 11.2026 5.29839 11.2026H9.85431C10.3575 11.2026 10.7655 10.7847 10.7655 10.2692ZM10.7655 14.0028C10.7655 13.4873 10.3575 13.0694 9.85431 13.0694H5.29839C4.79516 13.0694 4.38721 13.4873 4.38721 14.0028C4.38721 14.5183 4.79516 14.9362 5.29839 14.9362H9.85431C10.3575 14.9362 10.7655 14.5183 10.7655 14.0028Z"/>
  </symbol>
  <symbol id="icon-bell" viewBox="0 0 19 24">
  <path fill-rule="evenodd" clip-rule="evenodd" d="M9.64958 23.5846C8.83677 23.5846 8.03829 23.358 7.3344 22.9275C7.03299 22.7605 6.84228 22.4319 6.83767 22.0716C6.83307 21.7114 7.01531 21.3774 7.31235 21.2018C7.60939 21.0263 7.9734 21.0373 8.26047 21.2306C9.03369 21.6997 9.97247 21.7476 10.7846 21.3592C11.5968 20.9709 12.1838 20.1934 12.363 19.2689C12.5338 18.3329 13.3152 17.6625 14.2151 17.6799H16.8359L16.1969 14.9727C16.188 14.8945 16.188 14.8155 16.1969 14.7373V9.11699C16.259 5.42983 13.618 2.31985 10.1497 1.99596C8.35631 1.86813 6.59334 2.53468 5.28179 3.83642C3.97024 5.13816 3.22785 6.95822 3.23191 8.86196V14.7471C3.24083 14.8253 3.24083 14.9043 3.23191 14.9825L2.59292 17.6897H9.74219C10.2536 17.6897 10.6683 18.1288 10.6683 18.6705C10.6683 19.2123 10.2536 19.6514 9.74219 19.6514H2.59292C2.02368 19.6509 1.48626 19.3733 1.13553 18.8984C0.784798 18.4235 0.65972 17.8042 0.796337 17.2189L1.40754 14.6294V8.87177C1.4024 6.42489 2.35637 4.08551 4.04176 2.41198C5.72715 0.738453 7.99275 -0.11908 10.2978 0.0440519C14.7381 0.435188 18.1359 4.39818 18.0768 9.11699V14.6098L18.688 17.1993C18.8247 17.7845 18.6996 18.4039 18.3488 18.8788C17.9981 19.3536 17.4607 19.6313 16.8915 19.6318H14.2707C13.8363 21.9601 11.8901 23.6249 9.64958 23.5846Z"/>
  </symbol>
  <symbol id="icon-circle" viewBox="0 0 9 9">
    <ellipse cx="4.5" cy="4.58536" rx="3.5" ry="3.58536"/>
  </symbol>
  <symbol id="icon-plus" viewBox="0 0 12 12">
    <path fill-rule="evenodd" clip-rule="evenodd" d="M5.00136 6.48H3.50383C3.22814 6.48 3.00465 6.25651 3.00465 5.98082C3.00465 5.70513 3.22814 5.48164 3.50383 5.48164H5.00136C5.27704 5.48164 5.50053 5.70513 5.50053 5.98082C5.50053 6.25651 5.27704 6.48 5.00136 6.48ZM9.3493 10.9726C9.49732 10.8727 9.58082 10.7015 9.56834 10.5233C9.55586 10.3452 9.4493 10.1873 9.2888 10.109C9.1283 10.0308 8.93824 10.0441 8.79022 10.144C6.64793 11.6057 3.74706 11.2097 2.0749 9.22732C0.40274 7.24489 0.501467 4.31879 2.30345 2.45358C4.10543 0.588372 7.02639 0.388833 9.06528 1.99166C11.1042 3.59449 11.5999 6.47998 10.2129 8.67139C10.1175 8.82209 10.1097 9.01224 10.1925 9.17021C10.2753 9.32819 10.4361 9.42999 10.6143 9.43727C10.7925 9.44455 10.9611 9.35621 11.0565 9.20551C12.6938 6.60995 12.1047 3.19682 9.69201 1.3003C7.27936 -0.596214 3.82364 -0.36262 1.68817 1.84133C-0.447297 4.04529 -0.571727 7.50666 1.39998 9.85826C3.37169 12.2099 6.80171 12.691 9.34431 10.9726H9.3493ZM8.99488 5.98082C8.99488 5.70513 8.77139 5.48164 8.49571 5.48164H6.99818C6.72249 5.48164 6.499 5.70513 6.499 5.98082C6.499 6.25651 6.72249 6.48 6.99818 6.48H8.49571C8.77139 6.48 8.99488 6.25651 8.99488 5.98082ZM6.49897 8.47671V6.97918C6.49897 6.70349 6.27548 6.48001 5.99979 6.48001C5.7241 6.48001 5.50061 6.70349 5.50061 6.97918V8.47671C5.50061 8.7524 5.7241 8.97589 5.99979 8.97589C6.27548 8.97589 6.49897 8.7524 6.49897 8.47671ZM6.49897 4.98248V3.48495C6.49897 3.20926 6.27548 2.98577 5.99979 2.98577C5.7241 2.98577 5.50061 3.20926 5.50061 3.48495V4.98248C5.50061 5.25816 5.7241 5.48165 5.99979 5.48165C6.27548 5.48165 6.49897 5.25816 6.49897 4.98248Z"/>
  </symbol>
  <symbol id="icon-Discover" viewBox="0 0 16 16">
    <path fill-rule="evenodd" clip-rule="evenodd" d="M8.74483 15.0899C8.45698 15.0905 8.18088 14.9759 7.97803 14.7717L7.21124 14.0049C7.0048 13.8281 6.91488 13.5505 6.97845 13.2862C7.04201 13.022 7.24834 12.8157 7.51259 12.7521C7.77685 12.6885 8.05443 12.7784 8.23122 12.9849L8.74483 13.4985L8.99801 13.2453C9.05258 13.1904 9.08808 13.1194 9.09929 13.0428L9.52609 10.0624C9.57142 9.75246 9.71611 9.46561 9.93842 9.24496L11.7397 7.44372C12.965 6.22665 13.6527 4.57002 13.6494 2.84296V1.44681H12.2533C10.5262 1.44353 8.86957 2.13119 7.65251 3.35656L5.85127 5.1578C5.63061 5.38011 5.34376 5.5248 5.03384 5.57014L2.04624 5.99694C1.96962 6.00814 1.89862 6.04364 1.84369 6.09821L1.5905 6.3514L2.10411 6.865C2.31055 7.04179 2.40047 7.31938 2.3369 7.58363C2.27334 7.84789 2.06701 8.05421 1.80276 8.11778C1.5385 8.18134 1.26092 8.09142 1.08413 7.88498L0.317337 7.11819C-0.105779 6.69455 -0.105779 6.00825 0.317337 5.5846L0.830943 5.071C1.10685 4.79455 1.46454 4.61443 1.85092 4.55739L4.83852 4.13059L6.63976 2.32935C8.12941 0.832479 10.156 -0.00627152 12.2677 3.53116e-05H14.3728C14.7723 3.53116e-05 15.0962 0.323908 15.0962 0.723425V2.84296C15.1025 4.95474 14.2637 6.98129 12.7669 8.47093L10.9656 10.2722L10.5388 13.2598C10.4818 13.6462 10.3017 14.0038 10.0252 14.2797L9.51162 14.7934C9.30525 14.9896 9.02957 15.0963 8.74483 15.0899ZM5.1639 12.9849L6.18388 11.9649C6.42967 11.6779 6.41315 11.2501 6.14595 10.9829C5.87875 10.7157 5.45092 10.6991 5.1639 10.9449L4.14392 11.9649C3.93749 12.1417 3.84756 12.4193 3.91113 12.6835C3.9747 12.9478 4.18102 13.1541 4.44527 13.2177C4.70953 13.2812 4.98711 13.1913 5.1639 12.9849ZM2.09692 11.9649L4.14411 9.91771C4.3899 9.63069 4.37337 9.20286 4.10618 8.93566C3.83898 8.66846 3.41114 8.65193 3.12413 8.89773L1.07694 10.9449C0.870498 11.1217 0.780576 11.3993 0.844142 11.6635C0.907707 11.9278 1.11403 12.1341 1.37829 12.1977C1.64254 12.2613 1.92013 12.1713 2.09692 11.9649ZM11.3057 6.85054C12.1519 6.00325 12.1519 4.63065 11.3057 3.78337C11.1289 3.57693 10.8513 3.48701 10.5871 3.55057C10.3228 3.61414 10.1165 3.82046 10.0529 4.08472C9.98935 4.34897 10.0793 4.62656 10.2857 4.80335C10.4227 4.93917 10.4997 5.12407 10.4997 5.31695C10.4997 5.50984 10.4227 5.69473 10.2857 5.83056C10.0036 6.11103 9.54788 6.11103 9.26573 5.83056C9.12878 5.69473 9.05175 5.50984 9.05175 5.31695C9.05175 5.12407 9.12878 4.93917 9.26573 4.80335C9.51152 4.51633 9.49499 4.0885 9.22779 3.8213C8.9606 3.5541 8.53276 3.53758 8.24575 3.78337C7.66514 4.32438 7.42615 5.13916 7.62252 5.90807C7.81888 6.67699 8.4193 7.2774 9.18821 7.47377C9.95713 7.67014 10.7719 7.43114 11.3129 6.85054H11.3057Z"/>
  </symbol>
  <symbol id="icon-Songs" viewBox="0 0 11 15">
    <path fill-rule="evenodd" clip-rule="evenodd" d="M2.54692 15C2.27085 14.9996 1.99591 14.9646 1.72848 14.8958C0.733813 14.5697 0.045024 13.6586 0 12.6095C0 10.6726 1.99722 10.1577 3.05386 10.1577C3.39118 10.1577 3.66463 10.4321 3.66463 10.7706C3.66463 11.1092 3.39118 11.3836 3.05386 11.3836C2.98057 11.3836 1.22154 11.3836 1.22154 12.6095C1.27442 13.0911 1.58291 13.5062 2.02776 13.6944C2.69198 13.8605 3.39535 13.7039 3.92726 13.2715C4.53311 12.7966 4.88872 12.0693 4.89228 11.2978V2.48351C4.8989 1.69027 5.25159 0.939788 5.8573 0.430114C6.29409 0.0623671 6.87657 -0.0803736 7.43309 0.043954C9.00278 0.405596 11 2.6061 11 4.56142C10.9378 5.57678 10.3455 6.48354 9.44253 6.9458C9.14063 7.09814 8.77284 6.97602 8.62104 6.67304C8.46925 6.37006 8.59094 6.00095 8.89284 5.84862C9.38366 5.59176 9.71547 5.1072 9.77846 4.55529C9.77846 3.15162 8.14159 1.49052 7.15825 1.23308C6.96594 1.19249 6.76591 1.24723 6.62077 1.38019C6.30572 1.65562 6.12155 2.052 6.11383 2.47125V11.2855C6.11047 12.4339 5.584 13.5177 4.68462 14.2277C4.07911 14.7195 3.32584 14.9916 2.54692 15Z"/>
  </symbol>
  <symbol id="icon-Albums" viewBox="0 0 13 16">
    <path fill-rule="evenodd" clip-rule="evenodd" d="M10.2871 15.9866H6.01414C5.64426 15.9866 5.34441 15.6868 5.34441 15.3169C5.34441 14.947 5.64426 14.6471 6.01414 14.6471H10.2871C10.5175 14.6472 10.7053 14.4623 10.709 14.2319V6.52323C10.7088 6.41303 10.6656 6.30726 10.5884 6.22855L8.50556 4.14567C8.42725 4.06793 8.32122 4.02455 8.21088 4.02512H4.43357C4.20316 4.02877 4.0183 4.21661 4.01833 4.44705V15.3303C4.01833 15.7001 3.71848 16 3.34859 16C2.97871 16 2.67886 15.7001 2.67886 15.3303V4.44705C2.68255 3.47687 3.47008 2.69233 4.44026 2.69234H8.21758C8.68507 2.69075 9.13371 2.87648 9.46328 3.20804L11.5462 5.29092C11.8758 5.62175 12.0612 6.06958 12.0619 6.53663V14.2453C12.0508 15.2155 11.2573 15.994 10.2871 15.9866ZM1.33278 12.6379V1.75471C1.33643 1.5243 1.52427 1.33944 1.75471 1.33947H6.20176C6.57164 1.33947 6.87149 1.03962 6.87149 0.669736C6.87149 0.299851 6.57164 0 6.20176 0H1.75471C0.784528 0.00368893 -7.01315e-06 0.791218 0 1.76141V12.6446C0 13.0145 0.299851 13.3144 0.669736 13.3144C1.03962 13.3144 1.33947 13.0145 1.33947 12.6446L1.33278 12.6379Z"/>
  </symbol>
  <symbol id="icon-Artists" viewBox="0 0 12 16">
    <path fill-rule="evenodd" clip-rule="evenodd" d="M10 16H3.33333C2.96514 16 2.66667 15.7015 2.66667 15.3333C2.66667 14.9652 2.96514 14.6667 3.33333 14.6667H10C10.3682 14.6667 10.6667 14.3682 10.6667 14V11.2333C10.6331 10.8593 10.4088 10.529 10.0733 10.36C7.46025 9.30497 4.53975 9.30497 1.92667 10.36C1.59125 10.529 1.36689 10.8593 1.33333 11.2333V15.3333C1.33333 15.7015 1.03486 16 0.666667 16C0.298477 16 0 15.7015 0 15.3333V11.2333C0.0294815 10.3131 0.58421 9.4914 1.42667 9.12C4.36032 7.93454 7.63968 7.93454 10.5733 9.12C11.4158 9.4914 11.9705 10.3131 12 11.2333V14C12 15.1046 11.1046 16 10 16ZM9.33334 3.33333C9.33334 1.49238 7.84095 0 6 0C4.15905 0 2.66667 1.49238 2.66667 3.33333C2.66667 5.17428 4.15905 6.66667 6 6.66667C7.84095 6.66667 9.33334 5.17428 9.33334 3.33333ZM8 3.33333C8 4.4379 7.10457 5.33334 6 5.33334C4.89543 5.33334 4 4.4379 4 3.33333C4 2.22876 4.89543 1.33333 6 1.33333C7.10457 1.33333 8 2.22876 8 3.33333Z"/>
  </symbol>
  <symbol id="icon-YouTube" viewBox="0 0 17 13">
    <path fill-rule="evenodd" clip-rule="evenodd" d="M1.36112 12.073C1.2419 12.0738 1.12456 12.0433 1.02084 11.9845C0.386636 11.6184 -0.00289117 10.9406 1.61616e-05 10.2083V2.04166C-0.000451798 1.31178 0.388748 0.637167 1.02084 0.272227C1.23181 0.138118 1.49931 0.130462 1.7176 0.252288C1.93589 0.374113 2.06982 0.605807 2.06643 0.855766C2.06305 1.10572 1.9229 1.33371 1.7014 1.44958C1.48999 1.57163 1.36015 1.79756 1.36112 2.04166V10.2083C1.36015 10.4524 1.48999 10.6783 1.7014 10.8004C1.97104 10.9532 2.10339 11.2688 2.02333 11.5683C1.94328 11.8677 1.67104 12.0752 1.36112 12.073ZM15.3129 11.9777C15.945 11.6128 16.3342 10.9382 16.3337 10.2083V2.04165C16.3332 1.3156 15.9471 0.644469 15.3197 0.279024C15.1087 0.144915 14.8412 0.13726 14.6229 0.259085C14.4047 0.380911 14.2707 0.612604 14.2741 0.862563C14.2775 1.11252 14.4176 1.34051 14.6392 1.45638C14.8485 1.57721 14.978 1.79998 14.9794 2.04165V10.2083C14.9804 10.4524 14.8506 10.6783 14.6392 10.8004C14.4176 10.9162 14.2775 11.1442 14.2741 11.3942C14.2707 11.6441 14.4047 11.8758 14.6229 11.9977C14.8412 12.1195 15.1087 12.1118 15.3197 11.9777H15.3129ZM4.08289 10.8888C3.70703 10.8888 3.40233 11.1935 3.40233 11.5694C3.40233 11.9452 3.70703 12.2499 4.08289 12.2499C4.45874 12.2499 4.76344 11.9452 4.76344 11.5694C4.76344 11.1935 4.45874 10.8888 4.08289 10.8888ZM6.80571 10.8888C6.42985 10.8888 6.12516 11.1935 6.12516 11.5694C6.12516 11.9452 6.42985 12.2499 6.80571 12.2499C7.18157 12.2499 7.48626 11.9452 7.48626 11.5694C7.48626 11.1935 7.18157 10.8888 6.80571 10.8888ZM9.52766 10.8888C9.1518 10.8888 8.84711 11.1935 8.84711 11.5694C8.84711 11.9452 9.1518 12.2499 9.52766 12.2499C9.90352 12.2499 10.2082 11.9452 10.2082 11.5694C10.2082 11.1935 9.90352 10.8888 9.52766 10.8888ZM12.2501 10.8888C11.8742 10.8888 11.5695 11.1935 11.5695 11.5694C11.5695 11.9452 11.8742 12.2499 12.2501 12.2499C12.6259 12.2499 12.9306 11.9452 12.9306 11.5694C12.9306 11.1935 12.6259 10.8888 12.2501 10.8888ZM4.08289 0C3.70703 0 3.40233 0.304693 3.40233 0.680552C3.40233 1.05641 3.70703 1.3611 4.08289 1.3611C4.45874 1.3611 4.76344 1.05641 4.76344 0.680552C4.76344 0.304693 4.45874 0 4.08289 0ZM6.80571 0C6.42985 0 6.12516 0.304693 6.12516 0.680552C6.12516 1.05641 6.42985 1.3611 6.80571 1.3611C7.18157 1.3611 7.48626 1.05641 7.48626 0.680552C7.48626 0.304693 7.18157 0 6.80571 0ZM9.52766 0C9.1518 0 8.84711 0.304693 8.84711 0.680552C8.84711 1.05641 9.1518 1.3611 9.52766 1.3611C9.90352 1.3611 10.2082 1.05641 10.2082 0.680552C10.2082 0.304693 9.90352 0 9.52766 0ZM12.2501 0C11.8742 0 11.5695 0.304693 11.5695 0.680552C11.5695 1.05641 11.8742 1.3611 12.2501 1.3611C12.6259 1.3611 12.9306 1.05641 12.9306 0.680552C12.9306 0.304693 12.6259 0 12.2501 0ZM7.48612 8.84717V4.76386L9.58222 6.39718L9.1875 6.62857C8.96599 6.74444 8.82584 6.97243 8.82246 7.22239C8.81908 7.47234 8.953 7.70404 9.17129 7.82586C9.38958 7.94769 9.65708 7.94003 9.86805 7.80593L11.1339 7.06412C11.3282 6.95008 11.4534 6.74727 11.4684 6.52248C11.4834 6.29768 11.3862 6.08004 11.2087 5.94121L7.2207 2.83109C7.0155 2.66893 6.73553 2.63871 6.50045 2.75335C6.26538 2.86799 6.11679 3.10719 6.11821 3.36873V8.81314C6.11821 9.189 6.4229 9.49369 6.79876 9.49369C7.17462 9.49369 7.47931 9.189 7.47931 8.81314L7.48612 8.84717Z"/>
  </symbol>
  <symbol id="icon-Favourite" viewBox="0 0 15 13">
    <path fill-rule="evenodd" clip-rule="evenodd" d="M12.0969 12.9938H7.36905C6.87359 12.9933 6.39859 12.7973 6.04847 12.4488L5.17017 11.5755C4.9924 11.4241 4.91497 11.1865 4.96971 10.9602C5.02445 10.734 5.20211 10.5573 5.42966 10.5029C5.65721 10.4485 5.89624 10.5255 6.04847 10.7022L6.92678 11.5755C7.04433 11.6914 7.20347 11.7561 7.36905 11.7551H12.0969C12.392 11.7629 12.6521 11.5638 12.7199 11.2782L13.7601 6.94282C13.8047 6.75571 13.7593 6.55864 13.6373 6.40945C13.5153 6.26025 13.3305 6.17586 13.1372 6.18103H8.48406C8.05295 6.1808 7.6526 5.95898 7.4256 5.59458C7.19859 5.23018 7.1772 4.77499 7.36905 4.39113L8.44668 2.2544C8.55588 2.03745 8.5454 1.77996 8.41893 1.57249C8.29247 1.36502 8.06773 1.23664 7.82377 1.23249L5.13279 5.24582C4.62307 6.00495 4.30863 6.87691 4.21711 7.78512L3.86205 11.3278C3.76573 12.2807 2.95661 13.0048 1.99332 13H1.86874C0.836661 13 0 12.1681 0 11.142V6.18722C0 5.16106 0.836661 4.3292 1.86874 4.3292C2.21276 4.3292 2.49165 4.60649 2.49165 4.94854C2.49165 5.29059 2.21276 5.56788 1.86874 5.56788C1.52471 5.56788 1.24582 5.84517 1.24582 6.18722V11.142C1.24582 11.484 1.52471 11.7613 1.86874 11.7613H1.98709C2.30819 11.7629 2.57789 11.5215 2.61 11.2039L2.96506 7.66125C3.07801 6.55424 3.46074 5.49131 4.08007 4.56455L6.77105 0.551216C7.00169 0.207505 7.38952 0.000766915 7.80508 1.90148e-06C8.48417 -0.000940396 9.11515 0.348397 9.47198 0.922866C9.8288 1.49734 9.86041 2.21471 9.55547 2.818L8.47783 4.95473H13.131C13.7022 4.95465 14.2422 5.21437 14.5967 5.65978C14.9512 6.10518 15.0813 6.68734 14.9499 7.2401L13.9096 11.5755C13.7059 12.4069 12.9576 12.9924 12.0969 12.9938Z"/>
  </symbol>
  <symbol id="icon-Recent History" viewBox="0 0 17 13">
    <path fill-rule="evenodd" clip-rule="evenodd" d="M8.17611 9.69508C7.79365 9.69508 7.4836 9.38503 7.4836 9.00257V3.62873L6.36174 1.38501H1.68041L2.37291 2.77002H5.40609C5.78855 2.77002 6.09859 3.08007 6.09859 3.46253C6.09859 3.84499 5.78855 4.15503 5.40609 4.15503H2.07513C1.73415 4.15576 1.42249 3.96232 1.27183 3.65643L0.0945689 1.30191C-0.0443627 1.02323 -0.0294095 0.692532 0.134107 0.427522C0.297623 0.162513 0.58648 0.000824216 0.897875 0H6.36867C6.89424 0.000278889 7.37437 0.298014 7.60825 0.768681L8.87554 3.30325V9.0095C8.87371 9.19316 8.79899 9.36858 8.66782 9.49715C8.53665 9.62573 8.35977 9.69692 8.17611 9.69508ZM15.1013 10.3876V6.23256C15.1013 5.8501 14.7913 5.54005 14.4088 5.54005C14.0263 5.54005 13.7163 5.8501 13.7163 6.23256V10.3876C13.7163 10.77 13.4063 11.0801 13.0238 11.0801H3.32872C2.94626 11.0801 2.63622 10.77 2.63622 10.3876V6.23256C2.63622 5.8501 2.32617 5.54005 1.94371 5.54005C1.56125 5.54005 1.25121 5.8501 1.25121 6.23256V10.3876C1.25121 11.535 2.18134 12.4651 3.32872 12.4651H13.0238C13.5748 12.4651 14.1032 12.2462 14.4928 11.8566C14.8824 11.467 15.1013 10.9386 15.1013 10.3876ZM15.1014 3.65643L16.2787 1.30191C16.4176 1.02323 16.4026 0.692532 16.2391 0.427522C16.0756 0.162513 15.7868 0.000824216 15.4754 0H9.56137C9.17891 0 8.86886 0.310045 8.86886 0.692505C8.86886 1.07497 9.17891 1.38501 9.56137 1.38501H14.6721L13.9796 2.77002H10.9464C10.5639 2.77002 10.2539 3.08007 10.2539 3.46253C10.2539 3.84499 10.5639 4.15503 10.9464 4.15503H14.2773C14.6203 4.15676 14.9345 3.96342 15.0876 3.65643H15.1014Z"/>
  </symbol>
  <symbol id="icon-Download Items" viewBox="0 0 15 13">
    <path fill-rule="evenodd" clip-rule="evenodd" d="M13.125 12.5H11.875C11.5298 12.5 11.25 12.2202 11.25 11.875C11.25 11.5298 11.5298 11.25 11.875 11.25H13.125C13.4702 11.25 13.75 10.9702 13.75 10.625V4.375C13.75 4.02982 13.4702 3.75 13.125 3.75H3.125C2.77982 3.75 2.5 3.47018 2.5 3.125C2.5 2.77982 2.77982 2.5 3.125 2.5H13.125C14.1605 2.5 15 3.33947 15 4.375V10.625C15 11.6605 14.1605 12.5 13.125 12.5ZM4.375 11.875C4.375 11.5298 4.09518 11.25 3.75 11.25H1.875C1.52982 11.25 1.25 10.9702 1.25 10.625V1.875C1.25 1.52982 1.52982 1.25 1.875 1.25H5.73125C5.89738 1.24904 6.05705 1.31426 6.175 1.43125L6.43125 1.6875C6.67922 1.89986 7.04887 1.88558 7.27973 1.65473C7.51058 1.42387 7.52486 1.05423 7.3125 0.80625L7.05625 0.55C6.70496 0.198269 6.22836 0.00043763 5.73125 0H1.875C0.839466 0 0 0.839466 0 1.875V10.625C0 11.6605 0.839466 12.5 1.875 12.5H3.75C4.09518 12.5 4.375 12.2202 4.375 11.875ZM7.94361 12.3188L10.4436 9.81875C10.656 9.57078 10.6417 9.20113 10.4108 8.97027C10.18 8.73942 9.81034 8.72514 9.56236 8.9375L8.13111 10.3687V5.625C8.13111 5.27982 7.85129 5 7.50611 5C7.16094 5 6.88111 5.27982 6.88111 5.625V11.875C6.87964 12.1289 7.03193 12.3585 7.26644 12.4559C7.50095 12.5532 7.77106 12.499 7.94986 12.3188H7.94361ZM6.06881 10.4438C6.31114 10.2 6.31114 9.80628 6.06881 9.56251L5.44381 8.93751C5.29107 8.75915 5.05124 8.68146 4.82292 8.73638C4.59461 8.7913 4.41635 8.96956 4.36143 9.19787C4.30651 9.42619 4.3842 9.66602 4.56256 9.81876L5.18756 10.4438C5.43133 10.6861 5.82504 10.6861 6.06881 10.4438Z"/>
  </symbol>
  <symbol id="icon-Local Files" viewBox="0 0 16 13">
    <path fill-rule="evenodd" clip-rule="evenodd" d="M11.9478 12.9999H2.03656C0.911799 12.9999 0 12.0809 0 10.9473V2.05262C0 0.918988 0.911799 0 2.03656 0H6.22508C6.76503 0.000479086 7.28269 0.217051 7.66425 0.602101L8.2277 1.16999C8.35581 1.29807 8.52924 1.36946 8.70969 1.36841H12.2194C12.5943 1.36841 12.8982 1.67474 12.8982 2.05262C12.8982 2.43049 12.5943 2.73682 12.2194 2.73682H8.70969C8.16974 2.73634 7.65208 2.51977 7.27052 2.13472L6.70707 1.56683C6.57896 1.43876 6.40552 1.36736 6.22508 1.36841H2.03656C1.66164 1.36841 1.35771 1.67474 1.35771 2.05262V10.9473C1.35771 11.3252 1.66164 11.6315 2.03656 11.6315H11.9478C12.2336 11.6314 12.4888 11.4508 12.5859 11.1799L14.6225 5.47364H5.9196L4.71803 9.11362C4.59993 9.4726 4.21545 9.66712 3.85928 9.54809C3.50311 9.42906 3.31011 9.04155 3.42821 8.68257L4.62978 5.04259C4.81421 4.48252 5.3341 4.1047 5.9196 4.10523H14.6429C15.0852 4.10542 15.4997 4.3228 15.7538 4.68779C16.0078 5.05278 16.0695 5.51962 15.9191 5.9389L13.8825 11.6452C13.5885 12.465 12.8127 13.0082 11.9478 12.9999Z"/>
  </symbol>
  <symbol id="icon-Bangla" viewBox="0 0 17 14">
    <path fill-rule="evenodd" clip-rule="evenodd" d="M14.7 14H2.1C0.940202 14 0 13.0598 0 11.9V2.1C0 0.940202 0.940202 0 2.1 0H6.419C6.97577 0.000490146 7.50955 0.222061 7.903 0.616L8.19 0.903C8.42784 1.18073 8.41185 1.59474 8.15329 1.85329C7.89474 2.11185 7.48073 2.12784 7.203 1.89L6.916 1.603C6.7839 1.47197 6.60506 1.39892 6.419 1.4H2.1C1.7134 1.4 1.4 1.7134 1.4 2.1V11.9C1.4 12.2866 1.7134 12.6 2.1 12.6H14.7C15.0866 12.6 15.4 12.2866 15.4 11.9V4.9C15.4 4.5134 15.0866 4.2 14.7 4.2H3.5C3.1134 4.2 2.8 3.8866 2.8 3.5C2.8 3.1134 3.1134 2.8 3.5 2.8H14.7C15.8598 2.8 16.8 3.7402 16.8 4.9V11.9C16.8 12.457 16.5788 12.9911 16.1849 13.3849C15.7911 13.7788 15.257 14 14.7 14ZM9.1 7V6.3C9.1 5.9134 8.7866 5.6 8.4 5.6C8.0134 5.6 7.7 5.9134 7.7 6.3V7C7.7 7.3866 8.0134 7.7 8.4 7.7C8.7866 7.7 9.1 7.3866 9.1 7ZM9.1 10.5V9.8C9.1 9.4134 8.7866 9.1 8.4 9.1C8.0134 9.1 7.7 9.4134 7.7 9.8V10.5C7.7 10.8866 8.0134 11.2 8.4 11.2C8.7866 11.2 9.1 10.8866 9.1 10.5ZM7.7 8.4C7.7 8.0134 7.3866 7.7 7 7.7H6.3C5.9134 7.7 5.6 8.0134 5.6 8.4C5.6 8.7866 5.9134 9.1 6.3 9.1H7C7.3866 9.1 7.7 8.7866 7.7 8.4ZM11.2 8.4C11.2 8.0134 10.8866 7.7 10.5 7.7H9.8C9.4134 7.7 9.1 8.0134 9.1 8.4C9.1 8.7866 9.4134 9.1 9.8 9.1H10.5C10.8866 9.1 11.2 8.7866 11.2 8.4Z"/>
  </symbol>
  <symbol id="icon-English" viewBox="0 0 17 14">
    <path fill-rule="evenodd" clip-rule="evenodd" d="M14.7 14H2.1C0.940202 14 0 13.0598 0 11.9V2.1C0 0.940202 0.940202 0 2.1 0H6.419C6.97577 0.000490146 7.50955 0.222061 7.903 0.616L8.19 0.903C8.42784 1.18073 8.41185 1.59474 8.15329 1.85329C7.89474 2.11185 7.48073 2.12784 7.203 1.89L6.916 1.603C6.7839 1.47197 6.60506 1.39892 6.419 1.4H2.1C1.7134 1.4 1.4 1.7134 1.4 2.1V11.9C1.4 12.2866 1.7134 12.6 2.1 12.6H14.7C15.0866 12.6 15.4 12.2866 15.4 11.9V4.9C15.4 4.5134 15.0866 4.2 14.7 4.2H3.5C3.1134 4.2 2.8 3.8866 2.8 3.5C2.8 3.1134 3.1134 2.8 3.5 2.8H14.7C15.8598 2.8 16.8 3.7402 16.8 4.9V11.9C16.8 12.457 16.5788 12.9911 16.1849 13.3849C15.7911 13.7788 15.257 14 14.7 14ZM9.1 7V6.3C9.1 5.9134 8.7866 5.6 8.4 5.6C8.0134 5.6 7.7 5.9134 7.7 6.3V7C7.7 7.3866 8.0134 7.7 8.4 7.7C8.7866 7.7 9.1 7.3866 9.1 7ZM9.1 10.5V9.8C9.1 9.4134 8.7866 9.1 8.4 9.1C8.0134 9.1 7.7 9.4134 7.7 9.8V10.5C7.7 10.8866 8.0134 11.2 8.4 11.2C8.7866 11.2 9.1 10.8866 9.1 10.5ZM7.7 8.4C7.7 8.0134 7.3866 7.7 7 7.7H6.3C5.9134 7.7 5.6 8.0134 5.6 8.4C5.6 8.7866 5.9134 9.1 6.3 9.1H7C7.3866 9.1 7.7 8.7866 7.7 8.4ZM11.2 8.4C11.2 8.0134 10.8866 7.7 10.5 7.7H9.8C9.4134 7.7 9.1 8.0134 9.1 8.4C9.1 8.7866 9.4134 9.1 9.8 9.1H10.5C10.8866 9.1 11.2 8.7866 11.2 8.4Z"/>
  </symbol>
  <symbol id="icon-My Style" viewBox="0 0 17 14">
    <path fill-rule="evenodd" clip-rule="evenodd" d="M14.7 14H2.1C0.940202 14 0 13.0598 0 11.9V2.1C0 0.940202 0.940202 0 2.1 0H6.419C6.97577 0.000490146 7.50955 0.222061 7.903 0.616L8.19 0.903C8.42784 1.18073 8.41185 1.59474 8.15329 1.85329C7.89474 2.11185 7.48073 2.12784 7.203 1.89L6.916 1.603C6.7839 1.47197 6.60506 1.39892 6.419 1.4H2.1C1.7134 1.4 1.4 1.7134 1.4 2.1V11.9C1.4 12.2866 1.7134 12.6 2.1 12.6H14.7C15.0866 12.6 15.4 12.2866 15.4 11.9V4.9C15.4 4.5134 15.0866 4.2 14.7 4.2H3.5C3.1134 4.2 2.8 3.8866 2.8 3.5C2.8 3.1134 3.1134 2.8 3.5 2.8H14.7C15.8598 2.8 16.8 3.7402 16.8 4.9V11.9C16.8 12.457 16.5788 12.9911 16.1849 13.3849C15.7911 13.7788 15.257 14 14.7 14ZM9.1 7V6.3C9.1 5.9134 8.7866 5.6 8.4 5.6C8.0134 5.6 7.7 5.9134 7.7 6.3V7C7.7 7.3866 8.0134 7.7 8.4 7.7C8.7866 7.7 9.1 7.3866 9.1 7ZM9.1 10.5V9.8C9.1 9.4134 8.7866 9.1 8.4 9.1C8.0134 9.1 7.7 9.4134 7.7 9.8V10.5C7.7 10.8866 8.0134 11.2 8.4 11.2C8.7866 11.2 9.1 10.8866 9.1 10.5ZM7.7 8.4C7.7 8.0134 7.3866 7.7 7 7.7H6.3C5.9134 7.7 5.6 8.0134 5.6 8.4C5.6 8.7866 5.9134 9.1 6.3 9.1H7C7.3866 9.1 7.7 8.7866 7.7 8.4ZM11.2 8.4C11.2 8.0134 10.8866 7.7 10.5 7.7H9.8C9.4134 7.7 9.1 8.0134 9.1 8.4C9.1 8.7866 9.4134 9.1 9.8 9.1H10.5C10.8866 9.1 11.2 8.7866 11.2 8.4Z"/>
  </symbol>
  <symbol id="icon-Hindi" viewBox="0 0 17 14">
    <path fill-rule="evenodd" clip-rule="evenodd" d="M14.7 14H2.1C0.940202 14 0 13.0598 0 11.9V2.1C0 0.940202 0.940202 0 2.1 0H6.419C6.97577 0.000490146 7.50955 0.222061 7.903 0.616L8.19 0.903C8.42784 1.18073 8.41185 1.59474 8.15329 1.85329C7.89474 2.11185 7.48073 2.12784 7.203 1.89L6.916 1.603C6.7839 1.47197 6.60506 1.39892 6.419 1.4H2.1C1.7134 1.4 1.4 1.7134 1.4 2.1V11.9C1.4 12.2866 1.7134 12.6 2.1 12.6H14.7C15.0866 12.6 15.4 12.2866 15.4 11.9V4.9C15.4 4.5134 15.0866 4.2 14.7 4.2H3.5C3.1134 4.2 2.8 3.8866 2.8 3.5C2.8 3.1134 3.1134 2.8 3.5 2.8H14.7C15.8598 2.8 16.8 3.7402 16.8 4.9V11.9C16.8 12.457 16.5788 12.9911 16.1849 13.3849C15.7911 13.7788 15.257 14 14.7 14ZM9.1 7V6.3C9.1 5.9134 8.7866 5.6 8.4 5.6C8.0134 5.6 7.7 5.9134 7.7 6.3V7C7.7 7.3866 8.0134 7.7 8.4 7.7C8.7866 7.7 9.1 7.3866 9.1 7ZM9.1 10.5V9.8C9.1 9.4134 8.7866 9.1 8.4 9.1C8.0134 9.1 7.7 9.4134 7.7 9.8V10.5C7.7 10.8866 8.0134 11.2 8.4 11.2C8.7866 11.2 9.1 10.8866 9.1 10.5ZM7.7 8.4C7.7 8.0134 7.3866 7.7 7 7.7H6.3C5.9134 7.7 5.6 8.0134 5.6 8.4C5.6 8.7866 5.9134 9.1 6.3 9.1H7C7.3866 9.1 7.7 8.7866 7.7 8.4ZM11.2 8.4C11.2 8.0134 10.8866 7.7 10.5 7.7H9.8C9.4134 7.7 9.1 8.0134 9.1 8.4C9.1 8.7866 9.4134 9.1 9.8 9.1H10.5C10.8866 9.1 11.2 8.7866 11.2 8.4Z"/>
  </symbol>
  <symbol id="icon-UserFotoBadge" viewBox="0 0 12 13">
    <path fill-rule="evenodd" clip-rule="evenodd" d="M6.45498 12.3268C6.47983 12.6118 6.72382 12.8221 6.99995 12.7965H7.08994C10.1398 12.2148 12.2576 9.32934 11.9747 6.14091C11.6918 2.95249 9.1015 0.512184 6 0.512184C2.8985 0.512184 0.30821 2.95249 0.0253116 6.14091C-0.257587 9.32934 1.86017 12.2148 4.91005 12.7965C5.18618 12.8478 5.45032 12.6583 5.50002 12.3732C5.54973 12.0882 5.36617 11.8155 5.09005 11.7642C2.54895 11.2787 0.785015 8.87399 1.02117 6.21734C1.25733 3.5607 3.41574 1.5276 6 1.5276C8.58426 1.5276 10.7427 3.5607 10.9788 6.21734C11.215 8.87399 9.45105 11.2787 6.90995 11.7642C6.63383 11.7899 6.43012 12.0417 6.45498 12.3268ZM5.83368 8.65884C5.87955 8.68984 5.93927 8.70708 6.00125 8.7072C6.06109 8.70869 6.11966 8.69417 6.16632 8.66628L8.87745 6.83403C8.95557 6.78112 9.00007 6.70615 9 6.62756V5.91326C9.00005 5.81042 8.92404 5.7159 8.8022 5.66728C8.68035 5.61867 8.53243 5.62384 8.41726 5.68074L6.3614 6.7001C6.28163 6.73518 6.23447 6.80018 6.23885 6.86902C6.24324 6.93787 6.29844 6.99927 6.38231 7.02858C6.46617 7.05789 6.56496 7.05031 6.63902 7.00889L8.50229 6.07881V6.57919L6.00125 8.27006L3.50021 6.57919V6.23321L5.37349 7.01075C5.49435 7.06211 5.64832 7.03088 5.71738 6.94099C5.78645 6.8511 5.74446 6.73659 5.62359 6.68522L3.55773 5.83141C3.44156 5.78328 3.2998 5.78448 3.18513 5.83458C3.07047 5.88468 3.00003 5.97618 3 6.07509V6.62012C2.99993 6.69871 3.04443 6.77367 3.12255 6.82659L5.83368 8.65884Z"/>
  </symbol>
  <symbol id="icon-play" viewBox="0 0 7 9">
    <path fill-rule="evenodd" clip-rule="evenodd" d="M1.26323 8C1.11785 8 1 7.86091 1 7.68933V1.93261C0.999819 1.59953 1.15026 1.29165 1.39463 1.12502C1.63899 0.958382 1.94013 0.958325 2.18454 1.12487L5.60655 3.46421C5.8501 3.63095 6 3.93811 6 4.2704C6 4.6027 5.8501 4.90986 5.60655 5.07659L2.44777 7.25128C2.36617 7.3125 2.26271 7.316 2.17827 7.26039C2.09384 7.20477 2.04204 7.09901 2.04335 6.9849C2.04466 6.87079 2.09887 6.76672 2.18454 6.71382L5.34332 4.53913C5.4245 4.48355 5.47447 4.38117 5.47447 4.2704C5.47447 4.15964 5.4245 4.05725 5.34332 4.00167L1.92131 1.66233C1.8397 1.60672 1.73914 1.60684 1.65762 1.66263C1.57611 1.71843 1.52609 1.8214 1.52646 1.93261V7.68933C1.52646 7.86091 1.40861 8 1.26323 8Z"/>
  </symbol>
  <symbol id="icon-share" viewBox="0 0 14 12">
    <path fill-rule="evenodd" clip-rule="evenodd" d="M12.2471 12C11.4664 11.9991 10.7803 11.4096 10.5644 10.5541L4.06702 8.46197C3.34821 9.36392 2.18445 9.59494 1.24065 9.02302C0.296857 8.4511 -0.186485 7.22197 0.0667887 6.03791C0.320062 4.85385 1.24541 4.01657 2.31414 4.00444C2.91427 4.00359 3.49169 4.26602 3.92679 4.73737L7.89414 1.62576C8.05141 0.681892 8.77529 -0.000873401 9.6178 8.38595e-07C10.5859 8.38595e-07 11.3707 0.894934 11.3707 1.99889C11.3707 3.10285 10.5859 3.99778 9.6178 3.99778C9.29511 3.99778 9.03351 3.69947 9.03351 3.33148C9.03351 2.9635 9.29511 2.66519 9.6178 2.66519C9.92734 2.66063 10.18 2.38157 10.194 2.02891C10.2079 1.67626 9.9782 1.37243 9.67027 1.33617C9.36235 1.29992 9.08307 1.54382 9.03351 1.89228C8.97956 2.23432 8.80405 2.53573 8.54855 2.72515L4.13129 6.18323C3.99178 6.29207 3.81778 6.32668 3.6542 6.27813C3.49062 6.22957 3.3535 6.10262 3.27822 5.93004C2.99715 5.43371 2.46304 5.20769 1.96608 5.37477C1.46911 5.54186 1.12796 6.06214 1.12796 6.65297C1.12796 7.2438 1.46911 7.76409 1.96608 7.93117C2.46304 8.09825 2.99715 7.87223 3.27822 7.3759C3.40761 7.10118 3.68678 6.96553 3.95016 7.04942L10.8507 9.24153C11.2479 9.36919 11.5566 9.72629 11.6628 10.181C11.7466 10.5074 12.0325 10.7095 12.3261 10.6499C12.6197 10.5902 12.8268 10.2879 12.8066 9.9486C12.7863 9.60928 12.5451 9.34184 12.2471 9.32815C11.9244 9.32815 11.6628 9.02984 11.6628 8.66185C11.6628 8.29387 11.9244 7.99556 12.2471 7.99556C13.2152 7.99556 14 8.89049 14 9.99445C14 11.0984 13.2152 11.9933 12.2471 11.9933V12Z"/>
  </symbol>
  <symbol id="icon-ellipsis" viewBox="0 0 10 2">
    <g>
      <path fill-rule="evenodd" clip-rule="evenodd" d="M1 0C0.447715 0 0 0.447715 0 1C0 1.55228 0.447715 2 1 2C1.55228 2 2 1.55228 2 1C2 0.447715 1.55228 0 1 0Z"/>
      <path fill-rule="evenodd" clip-rule="evenodd" d="M5 0C4.44772 0 4 0.447715 4 1C4 1.55228 4.44772 2 5 2C5.55228 2 6 1.55228 6 1C6 0.447715 5.55228 0 5 0Z"/>
      <path fill-rule="evenodd" clip-rule="evenodd" d="M9 0C8.44772 0 8 0.447715 8 1C8 1.55228 8.44772 2 9 2C9.55228 2 10 1.55228 10 1C10 0.447715 9.55228 0 9 0Z"/>
    </g>
  </symbol>
  <symbol id="icon-voice-recorder-table" viewBox="0 0 14 10">
    <path fill-rule="evenodd" clip-rule="evenodd" d="M5.9099 10C4.95246 10 4.17631 9.21084 4.17631 8.23737V4.12456C4.17631 3.80007 3.91759 3.53701 3.59844 3.53701C3.44549 3.52329 3.29406 3.57675 3.18238 3.6839C3.08243 3.78258 3.02613 3.91827 3.02636 4.05993C3.02825 4.57959 2.81918 5.07701 2.44849 5.43478C2.07478 5.79037 1.57214 5.97137 1.06162 5.9342L0.541543 5.89894C0.222398 5.87785 -0.019504 5.5977 0.0012405 5.27321C0.021985 4.94872 0.29752 4.70276 0.616666 4.72385L1.13674 4.75911C1.32822 4.77231 1.51652 4.70424 1.65682 4.57109C1.79807 4.43767 1.87774 4.25008 1.87641 4.05405C1.8752 3.59329 2.05885 3.15194 2.38493 2.83196C2.71245 2.51706 3.14772 2.34425 3.59844 2.35018C4.55588 2.35018 5.33204 3.13933 5.33204 4.11281V8.22562C5.33204 8.55011 5.59076 8.81316 5.9099 8.81316C6.22905 8.81316 6.48777 8.55011 6.48777 8.22562V1.76263C6.48777 0.789157 7.26392 0 8.22136 0C9.17879 0 9.95495 0.789157 9.95495 1.76263V6.46298C9.95495 6.78748 10.2137 7.05053 10.5328 7.05053C10.852 7.05053 11.1107 6.78748 11.1107 6.46298C11.1107 5.48951 11.8868 4.70035 12.8443 4.70035H13.4221C13.7413 4.70035 14 4.9634 14 5.2879C14 5.61239 13.7413 5.87544 13.4221 5.87544H12.8443C12.5251 5.87544 12.2664 6.13849 12.2664 6.46298C12.2664 7.43646 11.4903 8.22562 10.5328 8.22562C9.57538 8.22562 8.79922 7.43646 8.79922 6.46298V1.76263C8.79922 1.43814 8.5405 1.17509 8.22136 1.17509C7.90221 1.17509 7.64349 1.43814 7.64349 1.76263V8.22562C7.64657 8.69513 7.46529 9.14648 7.13984 9.47959C6.81439 9.81269 6.37169 10 5.9099 10Z"/>
  </symbol>
  <symbol id="icon-crown" viewBox="0 0 10 8">
    <path fill-rule="evenodd" clip-rule="evenodd" d="M8.75 7.68291H2.08333C1.85321 7.68291 1.66667 7.5005 1.66667 7.27548C1.66667 7.05047 1.85321 6.86805 2.08333 6.86805H8.75C8.98012 6.86805 9.16667 6.68564 9.16667 6.46062V2.72041L7.39583 3.8164C7.19313 4.0084 6.90481 4.08704 6.62974 4.02535C6.35466 3.96366 6.13021 3.77002 6.03333 3.51083L5 1.31885L3.95417 3.53527C3.84718 3.79047 3.61189 3.97268 3.33333 4.01604C3.06754 4.06467 2.79414 3.98416 2.6 3.8001L0.833333 2.72041V7.27548C0.833333 7.5005 0.646785 7.68291 0.416667 7.68291C0.186548 7.68291 9.16469e-09 7.5005 9.16469e-09 7.27548V2.72041C-4.49438e-05 2.42331 0.165285 2.14973 0.431461 2.00645C0.697636 1.86317 1.02247 1.8729 1.27917 2.03186L3.09167 3.15636C3.12592 3.17766 3.1568 3.20374 3.18333 3.23378L4.24583 0.984761C4.38223 0.696617 4.67737 0.512184 5.00208 0.512184C5.3268 0.512184 5.62194 0.696617 5.75833 0.984761L6.80417 3.20118C6.82917 3.17266 6.875 3.17673 6.90833 3.15636L8.72083 2.03593C8.97753 1.87698 9.30236 1.86724 9.56854 2.01052C9.83471 2.1538 10 2.42738 10 2.72449V6.46062C10 7.13567 9.44036 7.68291 8.75 7.68291Z"/>
  </symbol>
</svg>